<?xml version="1.0" encoding="UTF-8"?>
<!-- Created with Inkscape (http://www.inkscape.org/) -->
<svg width="24" height="24" version="1.1" viewBox="0 0 24 24" xmlns="http://www.w3.org/2000/svg">
 <g transform="translate(.125 -.474)" clip-rule="evenodd" fill-rule="evenodd" stroke-linejoin="round" stroke-miterlimit="2">
  <path d="m3.514 6.61c-0.317 0.179-0.514 0.519-0.514 0.887v8.95c0 0.37 0.197 0.708 0.514 0.887 1.597 0.901 6.456 3.639 8.005 4.512 0.152 0.085 0.319 0.128 0.487 0.128 0.164 0 0.328-0.041 0.477-0.123 1.549-0.855 6.39-3.523 7.994-4.408 0.323-0.177 0.523-0.519 0.523-0.891v-9.055c0-0.368-0.197-0.708-0.515-0.887-1.595-0.899-6.444-3.632-7.999-4.508-0.151-0.085-0.319-0.128-0.486-0.128-0.168 0-0.335 0.043-0.486 0.128-1.555 0.876-6.405 3.609-8 4.508m15.986 2.115v7.525l-6.75 3.722v-7.578zm-15 7.425v-7.458l6.75 3.75v7.511zm0.736-8.769 6.764-3.813 6.801 3.834-6.801 3.716z" fill-rule="nonzero"/>
 </g>
 <path d="m0.80854 23.497 22.757-22.757" fill="none" stroke="#000" stroke-linecap="round" stroke-width="1.2426"/>
</svg>
