<?xml version="1.0" encoding="UTF-8" standalone="no"?>
<!-- Created with Inkscape (http://www.inkscape.org/) -->

<svg
   width="39.6875mm"
   height="39.6875mm"
   viewBox="0 0 39.6875 39.6875"
   version="1.1"
   id="svg400"
   inkscape:version="1.1.2 (b8e25be833, 2022-02-05)"
   sodipodi:docname="CardExcavator.svg"
   xmlns:inkscape="http://www.inkscape.org/namespaces/inkscape"
   xmlns:sodipodi="http://sodipodi.sourceforge.net/DTD/sodipodi-0.dtd"
   xmlns="http://www.w3.org/2000/svg"
   xmlns:svg="http://www.w3.org/2000/svg">
  <sodipodi:namedview
     id="namedview402"
     pagecolor="#ffffff"
     bordercolor="#666666"
     borderopacity="1.0"
     inkscape:pageshadow="2"
     inkscape:pageopacity="0.0"
     inkscape:pagecheckerboard="0"
     inkscape:document-units="mm"
     showgrid="false"
     inkscape:zoom="1.1411827"
     inkscape:cx="71.417138"
     inkscape:cy="135.82401"
     inkscape:window-width="2880"
     inkscape:window-height="1514"
     inkscape:window-x="5749"
     inkscape:window-y="-11"
     inkscape:window-maximized="1"
     inkscape:current-layer="layer1" />
  <defs
     id="defs397" />
  <g
     inkscape:label="Lager 1"
     inkscape:groupmode="layer"
     id="layer1"
     transform="translate(-86.087336,-112.05715)">
    <g
       style="clip-rule:evenodd;fill-rule:evenodd"
       id="g455"
       transform="matrix(1.6536671,0,0,1.655025,86.087336,112.05715)">
      <path
         d="m 16.916,11.532 -1.131,-4.144 1.294,-3.21 3.603,1.159 -0.194,2.438 z m 5.929,-1.734 c 0.707,2.066 -1.26,2.442 -1.852,2.312 -0.866,-0.197 -1.911,-0.464 -2.618,-0.65 l 3.081,-3.254 0.286,-3.579 -5.243,-1.685 -1.766,4.383 2.202,8.076 C 17.017,15.7 16.784,15.98 16.493,15.98 H 1.458 C 1.146,15.98 1,15.706 1,15.522 V 11.457 C 1,11.146 1.273,10.999 1.458,10.999 H 8 V 7.438 C 8,7.186 8.206,6.98 8.459,6.98 H 11.6 c 0,0 3.552,-4.795 4.257,-5.817 0.13,-0.189 0.388,-0.206 0.59,-0.118 1.558,0.682 5.031,2.246 6.406,2.932 0.091,0.045 0.146,0.135 0.148,0.237 -0.031,0.23 -0.78,2.929 -0.922,3.45 0.111,0.3 0.437,1.181 0.766,2.134 z M 23.999,4.214 C 23.999,3.731 23.731,3.297 23.3,3.082 21.911,2.388 18.414,0.815 16.847,0.129 16.649,0.042 16.437,0 16.229,0 15.78,0 15.339,0.192 15.068,0.548 14.521,1.267 11.679,5.189 11.107,5.98 H 8.459 C 7.654,5.98 7,6.634 7,7.438 V 9.999 H 1.458 C 0.757,9.999 0,10.558 0,11.457 v 4.065 c 0,0.701 0.558,1.458 1.458,1.458 h 15.035 c 0.978,0 1.654,-0.93 1.407,-1.842 l -0.814,-2.983 c 0.417,0.112 2.376,0.633 3.687,0.931 1.215,0.278 2.163,-0.438 2.354,-0.6 0.56,-0.475 0.869,-1.139 0.869,-1.869 0,-0.637 -0.146,-1.038 -0.868,-2.998 0.877,-3.187 0.876,-3.236 0.871,-3.405 z M 17,22.98 H 3 c -1.103,0 -2,-0.897 -2,-2 0,-1.095 0.892,-1.993 2,-2 h 14 c 1.103,0 2,0.898 2,2 0,1.103 -0.897,2 -2,2 z m 0,-5 H 2.98 C 1.334,17.991 0,19.331 0,20.98 c 0,1.656 1.344,3 3,3 h 14 c 1.655,0 3,-1.344 3,-3 0,-1.655 -1.345,-3 -3,-3 z m -0.09,3.487 c -0.274,0 -0.5,-0.224 -0.5,-0.5 0,-0.277 0.226,-0.5 0.5,-0.5 0.276,0 0.5,0.223 0.5,0.5 0,0.276 -0.224,0.5 -0.5,0.5 z m 0,-2 c -0.827,0 -1.5,0.672 -1.5,1.5 0,0.827 0.673,1.5 1.5,1.5 0.827,0 1.5,-0.673 1.5,-1.5 0,-0.828 -0.673,-1.5 -1.5,-1.5 z m -4.536,2 c -0.275,0 -0.501,-0.224 -0.501,-0.5 0,-0.277 0.226,-0.5 0.501,-0.5 0.274,0 0.5,0.223 0.5,0.5 0,0.276 -0.226,0.5 -0.5,0.5 z m 0,-2 c -0.827,0 -1.501,0.672 -1.501,1.5 0,0.827 0.674,1.5 1.501,1.5 0.827,0 1.5,-0.673 1.5,-1.5 0,-0.828 -0.673,-1.5 -1.5,-1.5 z m -4.801,2 c -0.275,0 -0.5,-0.224 -0.5,-0.5 0,-0.277 0.225,-0.5 0.5,-0.5 0.275,0 0.5,0.223 0.5,0.5 0,0.276 -0.225,0.5 -0.5,0.5 z m 0,-2 c -0.827,0 -1.5,0.672 -1.5,1.5 0,0.827 0.673,1.5 1.5,1.5 0.827,0 1.5,-0.673 1.5,-1.5 0,-0.828 -0.673,-1.5 -1.5,-1.5 z m -4.47,2 c -0.274,0 -0.5,-0.224 -0.5,-0.5 0,-0.277 0.226,-0.5 0.5,-0.5 0.275,0 0.5,0.223 0.5,0.5 0,0.276 -0.225,0.5 -0.5,0.5 z m 0,-2 c -0.827,0 -1.5,0.672 -1.5,1.5 0,0.827 0.673,1.5 1.5,1.5 0.828,0 1.5,-0.673 1.5,-1.5 0,-0.828 -0.672,-1.5 -1.5,-1.5 z m -1.107,-7.5 h 4 v 1 h -4 z m 0,2 h 4 v 1 h -4 z m 8,-3 v -2 h 3.095 l 0.522,2 z m -1,-3 v 4 h 5.912 c -0.347,-1.334 -0.696,-2.667 -1.045,-4 z"
         id="path446" />
    </g>
  </g>
</svg>
