<?xml version="1.0" encoding="UTF-8" standalone="no"?>
<!-- Created with Inkscape (http://www.inkscape.org/) -->

<svg
   width="13.222551mm"
   height="10.513988mm"
   viewBox="0 0 13.222551 10.513988"
   version="1.1"
   id="svg114"
   inkscape:version="1.1.2 (b8e25be833, 2022-02-05)"
   sodipodi:docname="MM LogoBlackRed.svg"
   xmlns:inkscape="http://www.inkscape.org/namespaces/inkscape"
   xmlns:sodipodi="http://sodipodi.sourceforge.net/DTD/sodipodi-0.dtd"
   xmlns="http://www.w3.org/2000/svg"
   xmlns:svg="http://www.w3.org/2000/svg">
  <sodipodi:namedview
     id="namedview116"
     pagecolor="#ffffff"
     bordercolor="#666666"
     borderopacity="1.0"
     inkscape:pageshadow="2"
     inkscape:pageopacity="0.0"
     inkscape:pagecheckerboard="0"
     inkscape:document-units="mm"
     showgrid="false"
     inkscape:zoom="4"
     inkscape:cx="6.375"
     inkscape:cy="106.75"
     inkscape:window-width="3840"
     inkscape:window-height="2054"
     inkscape:window-x="-11"
     inkscape:window-y="-11"
     inkscape:window-maximized="1"
     inkscape:current-layer="g18" />
  <defs
     id="defs111" />
  <g
     inkscape:label="Lager 1"
     inkscape:groupmode="layer"
     id="layer1"
     transform="translate(-77.35408,-97.714197)">
    <g
       id="g18"
       transform="matrix(1.0753049,0,0,1.0753049,-6.4029284,-9.6745397)"
       style="fill:#ff0000">
      <g
         id="g176"
         transform="translate(-7.1355731,-28.603806)"
         style="image-rendering:auto">
        <title
           id="title382">blackRedLogo</title>
        <polygon
           id="polygon20008"
           data-name="logoMark &lt;PathItem&gt;"
           points="23.253,9.318 13.935,0 13.934,0 0,13.934 4.618,18.552 13.935,9.235 23.252,18.552 23.253,18.551 23.255,18.552 32.572,9.235 41.889,18.552 46.507,13.934 32.573,0 32.572,0 "
           style="fill:#ff0000"
           transform="matrix(0.26440236,0,0,0.26458333,85.026977,128.47198)" />
        <polygon
           id="polygon20012"
           data-name="logoMark &lt;PathItem&gt;"
           points="23.253,9.318 13.935,0 13.934,0 0,13.934 4.618,18.552 13.935,9.235 23.252,18.552 23.253,18.551 23.255,18.552 32.572,9.235 41.889,18.552 46.507,13.934 32.573,0 32.572,0 "
           style="fill:#000000"
           transform="matrix(0.26440236,0,0,0.26458333,85.026977,128.47198)" />
        <polygon
           id="polygon20042"
           data-name="logoMark &lt;PathItem&gt;"
           points="37.188,23.17 32.57,18.552 23.253,27.869 13.936,18.552 9.319,23.17 23.253,37.104 23.254,37.104 "
           style="fill:#ff0000"
           transform="matrix(0.26440236,0,0,0.26458333,85.026977,128.43256)" />
        <polygon
           id="polygon20044"
           data-name="logoMark &lt;PathItem&gt;"
           points="37.188,23.17 32.57,18.552 23.253,27.869 13.936,18.552 9.319,23.17 23.253,37.104 23.254,37.104 "
           style="fill:#ff0000"
           transform="matrix(0.26440236,0,0,0.26458333,85.026977,128.43256)" />
        <polygon
           id="polygon20046"
           data-name="logoMark &lt;PathItem&gt;"
           points="37.188,23.17 32.57,18.552 23.253,27.869 13.936,18.552 9.319,23.17 23.253,37.104 23.254,37.104 "
           style="fill:#ff0000"
           transform="matrix(0.26440236,0,0,0.26458333,85.026977,128.43256)" />
        <polygon
           id="polygon20048"
           data-name="logoMark &lt;PathItem&gt;"
           points="37.188,23.17 32.57,18.552 23.253,27.869 13.936,18.552 9.319,23.17 23.253,37.104 23.254,37.104 "
           style="fill:#ff0000"
           transform="matrix(0.26440236,0,0,0.26458333,85.026977,128.43256)" />
      </g>
    </g>
  </g>
</svg>
